<svg width="24" height="26" viewBox="0 0 24 26" fill="none" xmlns="http://www.w3.org/2000/svg">
<path fill-rule="evenodd" clip-rule="evenodd" d="M7.4222 21.4019C7.8442 21.4019 8.1872 21.7722 8.1872 22.2279C8.1872 22.6836 7.8442 23.0528 7.4222 23.0528C7.0002 23.0528 6.6582 22.6836 6.6582 22.2279C6.6582 21.7722 7.0002 21.4019 7.4222 21.4019Z" stroke="#333333" stroke-width="1.5" stroke-linecap="round" stroke-linejoin="round"/>
<path fill-rule="evenodd" clip-rule="evenodd" d="M18.6747 21.4019C19.0967 21.4019 19.4397 21.7722 19.4397 22.2279C19.4397 22.6836 19.0967 23.0528 18.6747 23.0528C18.2527 23.0528 17.9097 22.6836 17.9097 22.2279C17.9097 21.7722 18.2527 21.4019 18.6747 21.4019Z" stroke="#333333" stroke-width="1.5" stroke-linecap="round" stroke-linejoin="round"/>
<path d="M2.75 3.50928L4.83 3.898L5.793 16.2864C5.871 17.296 6.652 18.0713 7.59 18.0713H18.502C19.398 18.0713 20.158 17.3608 20.287 16.4019L21.236 9.32069C21.353 8.44714 20.726 7.66538 19.909 7.66538H5.164" stroke="#333333" stroke-width="1.5" stroke-linecap="round" stroke-linejoin="round"/>
<path d="M14.1255 11.6561H16.8985" stroke="#333333" stroke-width="1.5" stroke-linecap="round" stroke-linejoin="round"/>
</svg>
