<svg width="21" height="22" viewBox="0 0 21 22" fill="none" xmlns="http://www.w3.org/2000/svg">
<path d="M15.9189 13.5159C15.6599 13.7879 15.5409 14.1811 15.5999 14.5668L16.4889 19.8968C16.5639 20.3485 16.3879 20.8057 16.0389 21.0668C15.6969 21.3376 15.2419 21.3701 14.8689 21.1534L10.4399 18.6509C10.2859 18.5621 10.1149 18.5144 9.93988 18.509H9.66888C9.57488 18.5242 9.48288 18.5567 9.39888 18.6065L4.96888 21.1209C4.74988 21.2401 4.50188 21.2824 4.25888 21.2401C3.66688 21.1188 3.27188 20.5078 3.36888 19.8632L4.25888 14.5332C4.31788 14.1443 4.19888 13.7489 3.93988 13.4726L0.328876 9.68094C0.0268758 9.36352 -0.0781242 8.88685 0.0598758 8.45677C0.193876 8.02777 0.535876 7.71469 0.948876 7.64427L5.91888 6.86319C6.29688 6.82094 6.62888 6.57177 6.79888 6.20344L8.98888 1.33927C9.04088 1.23094 9.10788 1.13127 9.18888 1.04677L9.27888 0.970937C9.32588 0.914604 9.37988 0.868021 9.43988 0.830104L9.54888 0.786771L9.71888 0.710938H10.1399C10.5159 0.753188 10.8469 0.996938 11.0199 1.36094L13.2389 6.20344C13.3989 6.55769 13.7099 6.8036 14.0689 6.86319L19.0389 7.64427C19.4589 7.70927 19.8099 8.02344 19.9489 8.45677C20.0799 8.89119 19.9669 9.36785 19.6589 9.68094L15.9189 13.5159Z" fill="#333333"/>
</svg>
