<svg width="24" height="24" viewBox="0 0 24 24" fill="none" xmlns="http://www.w3.org/2000/svg">
<path fill-rule="evenodd" clip-rule="evenodd" d="M15.85 2.50016C16.481 2.50016 17.111 2.58916 17.71 2.79016C21.401 3.99016 22.731 8.04016 21.62 11.5802C20.99 13.3892 19.96 15.0402 18.611 16.3892C16.68 18.2592 14.561 19.9192 12.28 21.3492L12.03 21.5002L11.77 21.3392C9.48102 19.9192 7.35002 18.2592 5.40102 16.3792C4.06102 15.0302 3.03002 13.3892 2.39002 11.5802C1.26002 8.04016 2.59002 3.99016 6.32102 2.76916C6.61102 2.66916 6.91002 2.59916 7.21002 2.56016H7.33002C7.61102 2.51916 7.89002 2.50016 8.17002 2.50016H8.28002C8.91002 2.51916 9.52002 2.62916 10.111 2.83016H10.17C10.21 2.84916 10.24 2.87016 10.26 2.88916C10.481 2.96016 10.69 3.04016 10.89 3.15016L11.27 3.32016C11.3618 3.36913 11.4649 3.44396 11.554 3.50863C11.6104 3.5496 11.6612 3.5865 11.7 3.61016C11.7163 3.61979 11.7329 3.62947 11.7496 3.63923C11.8354 3.68928 11.9247 3.74142 12 3.79916C13.111 2.95016 14.46 2.49016 15.85 2.50016ZM18.5098 9.69967C18.9198 9.68867 19.2698 9.35967 19.2998 8.93867V8.81967C19.3298 7.41867 18.4808 6.14967 17.1898 5.65967C16.7798 5.51867 16.3298 5.73967 16.1798 6.15967C16.0398 6.57967 16.2598 7.03967 16.6798 7.18867C17.3208 7.42867 17.7498 8.05967 17.7498 8.75867V8.78967C17.7308 9.01867 17.7998 9.23967 17.9398 9.40967C18.0798 9.57967 18.2898 9.67867 18.5098 9.69967Z" fill="#BFBFBF"/>
</svg>
