<svg width="24" height="26" viewBox="0 0 24 26" fill="none" xmlns="http://www.w3.org/2000/svg">
<ellipse cx="11.5788" cy="7.85897" rx="4.77803" ry="5.15926" stroke="#333333" stroke-width="1.5" stroke-linecap="round" stroke-linejoin="round"/>
<path fill-rule="evenodd" clip-rule="evenodd" d="M4.00002 20.1961C3.99873 19.8334 4.07385 19.4752 4.2197 19.1484C4.67736 18.1601 5.96798 17.6362 7.03892 17.399C7.81128 17.2211 8.59431 17.1022 9.38217 17.0432C10.8408 16.9049 12.3079 16.9049 13.7666 17.0432C14.5544 17.1028 15.3374 17.2217 16.1099 17.399C17.1808 17.6362 18.4714 18.1107 18.9291 19.1484C19.2224 19.8144 19.2224 20.5876 18.9291 21.2536C18.4714 22.2914 17.1808 22.7658 16.1099 22.9932C15.3384 23.1785 14.5551 23.3008 13.7666 23.3589C12.5794 23.4675 11.3866 23.4874 10.1968 23.4182C9.92221 23.4182 9.65677 23.4182 9.38217 23.3589C8.59663 23.3015 7.81632 23.1792 7.04807 22.9932C5.96798 22.7658 4.68652 22.2914 4.2197 21.2536C4.0746 20.9231 3.99955 20.5619 4.00002 20.1961Z" stroke="#333333" stroke-width="1.5" stroke-linecap="round" stroke-linejoin="round"/>
</svg>
