<svg width="36" height="36" viewBox="0 0 36 36" fill="none" xmlns="http://www.w3.org/2000/svg">
<path d="M27.4969 14.2963C26.809 14.5162 26.0761 14.6619 25.3119 14.7327C26.0981 14.3907 26.6981 13.8533 26.9801 13.2055C26.2472 13.5239 25.438 13.7488 24.5755 13.8743C23.8796 13.3344 22.8877 13 21.8056 13C19.7062 13 18.0161 14.2416 18.0161 15.7637C18.0161 15.9827 18.0415 16.1932 18.1039 16.3937C14.9514 16.2817 12.1618 15.1808 10.2878 13.5037C9.96068 13.9173 9.76878 14.3907 9.76878 14.9003C9.76878 15.8572 10.4451 16.7054 11.4531 17.1965C10.8439 17.188 10.2462 17.0592 9.73988 16.8562C9.73988 16.8646 9.73988 16.8755 9.73988 16.8865C9.73988 18.2291 11.0543 19.3444 12.778 19.6013C12.4693 19.6628 12.1329 19.6923 11.7838 19.6923C11.541 19.6923 11.2959 19.6821 11.0659 19.6451C11.5572 20.7393 12.9514 21.5437 14.6092 21.5698C13.319 22.3051 11.6809 22.7482 9.9075 22.7482C9.59652 22.7482 9.29826 22.7381 9 22.7103C10.6797 23.4996 12.6705 23.9502 14.8173 23.9502C21.7952 23.9502 25.6102 19.7386 25.6102 16.088C25.6102 15.9658 25.6044 15.8479 25.5963 15.7308C26.3489 15.3417 26.9813 14.8556 27.4969 14.2963Z" fill="white"/>
<circle cx="18" cy="18" r="17" stroke="white" stroke-width="2"/>
</svg>
